<svg width="65" height="65" viewBox="0 0 65 65" fill="none" xmlns="http://www.w3.org/2000/svg">
<path d="M22.4522 30.5772C22.2056 30.8347 22.0123 31.1385 21.8834 31.4709C21.6125 32.1303 21.6125 32.8699 21.8834 33.5292C22.0123 33.8617 22.2056 34.1654 22.4522 34.423L30.5772 42.548C31.0872 43.058 31.7788 43.3445 32.5001 43.3445C33.2213 43.3445 33.913 43.058 34.423 42.548C34.933 42.038 35.2195 41.3463 35.2195 40.6251C35.2195 39.9038 34.933 39.2122 34.423 38.7022L30.9022 35.2084H40.6251C41.3434 35.2084 42.0322 34.9231 42.5402 34.4152C43.0481 33.9072 43.3334 33.2184 43.3334 32.5001C43.3334 31.7818 43.0481 31.0929 42.5402 30.585C42.0322 30.0771 41.3434 29.7917 40.6251 29.7917H30.9022L34.423 26.298C34.6768 26.0462 34.8783 25.7467 35.0158 25.4166C35.1533 25.0866 35.2241 24.7326 35.2241 24.3751C35.2241 24.0175 35.1533 23.6636 35.0158 23.3335C34.8783 23.0035 34.6768 22.7039 34.423 22.4522C34.1712 22.1983 33.8717 21.9968 33.5416 21.8593C33.2116 21.7218 32.8576 21.651 32.5001 21.651C32.1425 21.651 31.7886 21.7218 31.4585 21.8593C31.1285 21.9968 30.8289 22.1983 30.5772 22.4522L22.4522 30.5772ZM5.41675 32.5001C5.41675 37.8567 7.00516 43.0929 9.98111 47.5468C12.9571 52.0006 17.1869 55.4719 22.1357 57.5218C27.0846 59.5717 32.5301 60.108 37.7838 59.063C43.0374 58.018 47.8632 55.4386 51.6509 51.6509C55.4386 47.8632 58.018 43.0374 59.063 37.7838C60.108 32.5301 59.5717 27.0846 57.5218 22.1357C55.4719 17.1869 52.0006 12.9571 47.5468 9.98111C43.0929 7.00516 37.8567 5.41675 32.5001 5.41675C28.9434 5.41675 25.4216 6.11728 22.1357 7.47834C18.8498 8.83941 15.8642 10.8344 13.3493 13.3493C8.27016 18.4284 5.41675 25.3171 5.41675 32.5001ZM54.1667 32.5001C54.1667 36.7853 52.896 40.9744 50.5153 44.5374C48.1345 48.1005 44.7506 50.8776 40.7916 52.5175C36.8325 54.1574 32.476 54.5864 28.2731 53.7504C24.0702 52.9144 20.2096 50.8509 17.1794 47.8207C14.1493 44.7906 12.0857 40.93 11.2497 36.727C10.4137 32.5241 10.8428 28.1677 12.4827 24.2086C14.1226 20.2495 16.8997 16.8657 20.4627 14.4849C24.0258 12.1041 28.2148 10.8334 32.5001 10.8334C38.2464 10.8334 43.7574 13.1161 47.8207 17.1794C51.884 21.2427 54.1667 26.7537 54.1667 32.5001Z" fill="#F5F5F5"/>
</svg>
