<svg width="65" height="65" viewBox="0 0 65 65" fill="none" xmlns="http://www.w3.org/2000/svg">
<path d="M42.548 34.423C42.7946 34.1654 42.9879 33.8617 43.1168 33.5293C43.3876 32.8699 43.3876 32.1303 43.1168 31.4709C42.9879 31.1385 42.7946 30.8348 42.548 30.5772L34.423 22.4522C33.913 21.9422 33.2213 21.6557 32.5001 21.6557C31.7789 21.6557 31.0872 21.9422 30.5772 22.4522C30.0672 22.9622 29.7807 23.6539 29.7807 24.3751C29.7807 25.0963 30.0672 25.788 30.5772 26.298L34.098 29.7918H24.3751C23.6568 29.7918 22.9679 30.0771 22.46 30.585C21.9521 31.0929 21.6668 31.7818 21.6668 32.5001C21.6668 33.2184 21.9521 33.9073 22.46 34.4152C22.9679 34.9231 23.6568 35.2084 24.3751 35.2084H34.098L30.5772 38.7022C30.3233 38.954 30.1218 39.2535 29.9843 39.5835C29.8468 39.9136 29.7761 40.2676 29.7761 40.6251C29.7761 40.9826 29.8468 41.3366 29.9843 41.6667C30.1218 41.9967 30.3233 42.2962 30.5772 42.548C30.829 42.8019 31.1285 43.0033 31.4585 43.1408C31.7886 43.2783 32.1426 43.3491 32.5001 43.3491C32.8576 43.3491 33.2116 43.2783 33.5417 43.1408C33.8717 43.0033 34.1712 42.8019 34.423 42.548L42.548 34.423ZM59.5834 32.5001C59.5834 27.1435 57.995 21.9072 55.0191 17.4534C52.0431 12.9996 47.8133 9.52823 42.8644 7.47836C37.9156 5.42848 32.4701 4.89214 27.2164 5.93716C21.9627 6.98218 17.137 9.56161 13.3493 13.3493C9.56161 17.137 6.98218 21.9627 5.93716 27.2164C4.89214 32.4701 5.42848 37.9156 7.47836 42.8644C9.52823 47.8133 12.9996 52.0431 17.4534 55.0191C21.9072 57.995 27.1435 59.5834 32.5001 59.5834C39.683 59.5834 46.5718 56.73 51.6509 51.6509C56.73 46.5718 59.5834 39.683 59.5834 32.5001ZM10.8334 32.5001C10.8334 28.2148 12.1042 24.0258 14.4849 20.4627C16.8657 16.8997 20.2496 14.1226 24.2086 12.4827C28.1677 10.8428 32.5241 10.4137 36.7271 11.2497C40.93 12.0858 44.7906 14.1493 47.8207 17.1794C50.8509 20.2096 52.9144 24.0702 53.7504 28.2731C54.5865 32.4761 54.1574 36.8325 52.5175 40.7916C50.8776 44.7506 48.1005 48.1345 44.5374 50.5153C40.9744 52.896 36.7854 54.1668 32.5001 54.1668C26.7537 54.1668 21.2427 51.884 17.1794 47.8207C13.1162 43.7575 10.8334 38.2465 10.8334 32.5001Z" fill="#F5F5F5"/>
</svg>
