<svg width="35" height="35" viewBox="0 0 35 35" fill="none" xmlns="http://www.w3.org/2000/svg">
<path d="M12.7022 11.2438L16.0417 7.88959V21.875C16.0417 22.2618 16.1954 22.6327 16.4689 22.9062C16.7424 23.1797 17.1133 23.3333 17.5001 23.3333C17.8869 23.3333 18.2578 23.1797 18.5313 22.9062C18.8048 22.6327 18.9584 22.2618 18.9584 21.875V7.88959L22.298 11.2438C22.4336 11.3804 22.5949 11.4889 22.7726 11.563C22.9503 11.637 23.1409 11.6751 23.3334 11.6751C23.5259 11.6751 23.7165 11.637 23.8943 11.563C24.072 11.4889 24.2333 11.3804 24.3688 11.2438C24.5055 11.1082 24.614 10.9469 24.688 10.7692C24.7621 10.5915 24.8002 10.4009 24.8002 10.2083C24.8002 10.0158 24.7621 9.82522 24.688 9.6475C24.614 9.46979 24.5055 9.3085 24.3688 9.17293L18.5355 3.33959C18.3968 3.20683 18.2333 3.10275 18.0542 3.03334C17.6992 2.88749 17.301 2.88749 16.9459 3.03334C16.7669 3.10275 16.6034 3.20683 16.4647 3.33959L10.6313 9.17293C10.4954 9.3089 10.3875 9.47032 10.3139 9.64798C10.2403 9.82564 10.2024 10.0161 10.2024 10.2083C10.2024 10.4006 10.2403 10.5911 10.3139 10.7687C10.3875 10.9464 10.4954 11.1078 10.6313 11.2438C10.7673 11.3797 10.9287 11.4876 11.1064 11.5612C11.284 11.6348 11.4745 11.6726 11.6667 11.6726C11.859 11.6726 12.0495 11.6348 12.2271 11.5612C12.4048 11.4876 12.5662 11.3797 12.7022 11.2438ZM30.6251 17.5C30.2383 17.5 29.8674 17.6537 29.5939 17.9271C29.3204 18.2006 29.1667 18.5716 29.1667 18.9583V27.7083C29.1667 28.0951 29.0131 28.4661 28.7396 28.7395C28.4661 29.013 28.0952 29.1667 27.7084 29.1667H7.29175C6.90497 29.1667 6.53404 29.013 6.26055 28.7395C5.98706 28.4661 5.83341 28.0951 5.83341 27.7083V18.9583C5.83341 18.5716 5.67977 18.2006 5.40628 17.9271C5.13279 17.6537 4.76186 17.5 4.37508 17.5C3.98831 17.5 3.61737 17.6537 3.34388 17.9271C3.07039 18.2006 2.91675 18.5716 2.91675 18.9583V27.7083C2.91675 28.8687 3.37768 29.9815 4.19816 30.8019C5.01863 31.6224 6.13143 32.0833 7.29175 32.0833H27.7084C28.8687 32.0833 29.9815 31.6224 30.802 30.8019C31.6225 29.9815 32.0834 28.8687 32.0834 27.7083V18.9583C32.0834 18.5716 31.9298 18.2006 31.6563 17.9271C31.3828 17.6537 31.0119 17.5 30.6251 17.5Z" fill="#F5F5F5"/>
</svg>
