<svg width="56" height="33" viewBox="0 0 56 33" fill="none" xmlns="http://www.w3.org/2000/svg">
<path d="M0 27.5C0 15.0736 10.0736 5 22.5 5H33.5C45.9264 5 56 15.0736 56 27.5V33C56 35.2091 54.2091 37 52 37H4C1.79086 37 0 35.2091 0 33V27.5Z" fill="#D9D9D9"/>
<path d="M36.0416 22.9088L28.7128 15.6655C28.554 15.5054 28.3651 15.3783 28.1569 15.2915C27.9487 15.2048 27.7254 15.1602 27.4999 15.1602C27.2744 15.1602 27.0511 15.2048 26.8429 15.2915C26.6347 15.3783 26.4458 15.5054 26.287 15.6655L19.0437 22.9088C18.8835 23.0676 18.7564 23.2566 18.6697 23.4647C18.583 23.6729 18.5383 23.8962 18.5383 24.1217C18.5383 24.3472 18.583 24.5705 18.6697 24.7787C18.7564 24.9869 18.8835 25.1758 19.0437 25.3346C19.3637 25.6528 19.7967 25.8314 20.248 25.8314C20.6993 25.8314 21.1323 25.6528 21.4524 25.3346L27.4999 19.2871L33.5474 25.3346C33.8656 25.6503 34.2951 25.8282 34.7432 25.8301C34.9681 25.8314 35.1909 25.7883 35.3991 25.7033C35.6072 25.6182 35.7965 25.493 35.9562 25.3346C36.122 25.1815 36.2558 24.9971 36.35 24.792C36.4441 24.5868 36.4967 24.3651 36.5046 24.1395C36.5126 23.914 36.4757 23.6891 36.3963 23.4778C36.3168 23.2666 36.1962 23.0732 36.0416 22.9088Z" fill="black"/>
</svg>
